<svg width="29" height="28" viewBox="0 0 29 28" fill="none" xmlns="http://www.w3.org/2000/svg">
<path d="M0.986328 1.41943C0.986328 1.10663 1.1106 0.806638 1.3318 0.585452C1.553 0.364266 1.85301 0.240005 2.16584 0.240005H3.0434C4.53744 0.240005 5.43387 1.24488 5.94499 2.17899C6.28626 2.80172 6.53318 3.52353 6.72662 4.17772C6.77894 4.17359 6.8314 4.1715 6.88388 4.17143H26.5393C27.8446 4.17143 28.7882 5.42006 28.4296 6.67654L25.5548 16.7552C25.297 17.6591 24.7517 18.4546 24.0014 19.0209C23.2511 19.5873 22.3367 19.8938 21.3966 19.894H12.0423C11.0947 19.894 10.1734 19.5829 9.41987 19.0084C8.66636 18.434 8.12237 17.6279 7.87153 16.7143L6.67629 12.3551L4.69471 5.67481L4.69314 5.66223C4.4478 4.77058 4.21819 3.93555 3.87534 3.31281C3.54665 2.70737 3.28244 2.59886 3.04497 2.59886H2.16584C1.85301 2.59886 1.553 2.4746 1.3318 2.25342C1.1106 2.03223 0.986328 1.73224 0.986328 1.41943ZM8.96454 11.7827L10.1456 16.09C10.3815 16.9423 11.1569 17.5351 12.0423 17.5351H21.3966C21.8239 17.5351 22.2396 17.3959 22.5807 17.1385C22.9218 16.8812 23.1697 16.5197 23.2869 16.1088L26.0187 6.53029H7.41073L8.94252 11.6993L8.96454 11.7827ZM14.3541 24.6149C14.3541 25.449 14.0227 26.249 13.4329 26.8388C12.843 27.4286 12.043 27.76 11.2088 27.76C10.3746 27.76 9.57452 27.4286 8.98465 26.8388C8.39478 26.249 8.06339 25.449 8.06339 24.6149C8.06339 23.7807 8.39478 22.9807 8.98465 22.3909C9.57452 21.8011 10.3746 21.4697 11.2088 21.4697C12.043 21.4697 12.843 21.8011 13.4329 22.3909C14.0227 22.9807 14.3541 23.7807 14.3541 24.6149ZM11.9951 24.6149C11.9951 24.4063 11.9123 24.2063 11.7648 24.0589C11.6173 23.9114 11.4173 23.8286 11.2088 23.8286C11.0002 23.8286 10.8002 23.9114 10.6527 24.0589C10.5053 24.2063 10.4224 24.4063 10.4224 24.6149C10.4224 24.8234 10.5053 25.0234 10.6527 25.1709C10.8002 25.3183 11.0002 25.4011 11.2088 25.4011C11.4173 25.4011 11.6173 25.3183 11.7648 25.1709C11.9123 25.0234 11.9951 24.8234 11.9951 24.6149ZM25.3629 24.6149C25.3629 25.449 25.0315 26.249 24.4416 26.8388C23.8518 27.4286 23.0517 27.76 22.2175 27.76C21.3833 27.76 20.5833 27.4286 19.9934 26.8388C19.4035 26.249 19.0722 25.449 19.0722 24.6149C19.0722 23.7807 19.4035 22.9807 19.9934 22.3909C20.5833 21.8011 21.3833 21.4697 22.2175 21.4697C23.0517 21.4697 23.8518 21.8011 24.4416 22.3909C25.0315 22.9807 25.3629 23.7807 25.3629 24.6149ZM23.0039 24.6149C23.0039 24.4063 22.921 24.2063 22.7736 24.0589C22.6261 23.9114 22.4261 23.8286 22.2175 23.8286C22.009 23.8286 21.809 23.9114 21.6615 24.0589C21.514 24.2063 21.4312 24.4063 21.4312 24.6149C21.4312 24.8234 21.514 25.0234 21.6615 25.1709C21.809 25.3183 22.009 25.4011 22.2175 25.4011C22.4261 25.4011 22.6261 25.3183 22.7736 25.1709C22.921 25.0234 23.0039 24.8234 23.0039 24.6149Z" fill="#6C7072"/>
</svg>
