<svg width="29" height="28" viewBox="0 0 29 28" fill="none" xmlns="http://www.w3.org/2000/svg">
<g clip-path="url(#clip0_1039_2178)">
<path d="M28.5063 18.5866V24.3199C28.5063 25.2323 28.1439 26.1072 27.4988 26.7524C26.8537 27.3975 25.9787 27.7599 25.0663 27.7599H19.333C17.7243 27.7583 16.1444 27.3336 14.7517 26.5286C13.3589 25.7235 12.2024 24.5664 11.3981 23.1733C12.2625 23.1671 13.124 23.0718 13.9689 22.8889C14.6123 23.6934 15.4286 24.3429 16.3572 24.7891C17.2857 25.2353 18.3028 25.4669 19.333 25.4666H25.0663C25.3704 25.4666 25.6621 25.3458 25.8771 25.1307C26.0922 24.9157 26.213 24.624 26.213 24.3199V18.5866C26.2127 17.556 25.9805 16.5387 25.5334 15.6101C25.0864 14.6815 24.4361 13.8655 23.6307 13.2225C23.8151 12.3777 23.912 11.5162 23.9197 10.6517C25.3128 11.456 26.4699 12.6125 27.275 14.0053C28.08 15.398 28.5047 16.9779 28.5063 18.5866ZM21.6 11.3064C21.7072 9.82908 21.4952 8.34598 20.9783 6.95789C20.4614 5.5698 19.6518 4.30924 18.6044 3.26186C17.557 2.21449 16.2964 1.40485 14.9084 0.887964C13.5203 0.371074 12.0372 0.159047 10.5598 0.26629C7.94191 0.565263 5.5236 1.81105 3.76032 3.76906C1.99703 5.72707 1.01044 8.26219 0.986328 10.897L0.986328 16.6762C0.986328 19.5796 2.71435 20.8799 4.42633 20.8799H10.9623C13.5983 20.8572 16.135 19.8713 18.0944 18.1079C20.0538 16.3445 21.3006 13.9254 21.6 11.3064V11.3064ZM16.9823 4.88506C17.7964 5.70092 18.4257 6.68212 18.8277 7.76226C19.2297 8.84241 19.395 9.9963 19.3124 11.1459C19.0676 13.1911 18.0837 15.0764 16.5458 16.4468C15.0079 17.8172 13.0222 18.5782 10.9623 18.5866H4.42633C3.36222 18.5866 3.27966 17.1246 3.27966 16.6762V10.897C3.28922 8.83805 4.05096 6.85355 5.42154 5.31699C6.79211 3.78042 8.67701 2.79775 10.7215 2.55389C10.9119 2.54013 11.1022 2.53325 11.2926 2.53325C12.349 2.53227 13.3952 2.73946 14.3715 3.143C15.3477 3.54653 16.2349 4.1385 16.9823 4.88506Z" fill="#75797B"/>
</g>
<defs>
<clipPath id="clip0_1039_2178">
<rect width="27.52" height="27.52" fill="white" transform="translate(0.986328 0.239998)"/>
</clipPath>
</defs>
</svg>
