<svg width="29" height="28" viewBox="0 0 29 28" fill="none" xmlns="http://www.w3.org/2000/svg">
<path d="M24.8494 16.0449L24.8511 16.0471L26.535 18.2771C26.5353 18.2774 26.5355 18.2777 26.5358 18.2781C27.2343 19.21 27.6473 20.5049 27.6473 21.9044C27.6473 23.3566 27.2044 24.635 26.5312 25.5311C25.858 26.427 24.9944 26.9 24.1156 26.9H5.37904C4.53005 26.9 3.65916 26.4596 2.97783 25.5255L2.97365 25.5198L2.96938 25.5142C2.24099 24.5494 1.85304 23.242 1.85304 21.8967C1.85304 20.5514 2.24099 19.244 2.96938 18.2793L2.97104 18.2771L4.64517 16.0449C5.09145 15.4499 5.29017 14.7053 5.29017 14C5.29017 13.2947 5.09145 12.5502 4.64518 11.9551L4.64348 11.9529L2.95957 9.72294C2.9593 9.72258 2.95904 9.72223 2.95877 9.72187C2.26028 8.78999 1.8473 7.49512 1.8473 6.09565C1.8473 4.64224 2.28796 3.36384 2.95957 2.46836C3.63059 1.57367 4.49377 1.10001 5.37904 1.10001H24.1156C24.9646 1.10001 25.8354 1.54043 26.5168 2.47447L26.521 2.4802L26.5252 2.48586C27.2536 3.45057 27.6416 4.75797 27.6416 6.10329C27.6416 7.44861 27.2536 8.75602 26.5252 9.72073L26.5236 9.72294L24.8494 11.9551C24.4032 12.5502 24.2044 13.2947 24.2044 14C24.2044 14.7053 24.4032 15.4499 24.8494 16.0449ZM9.28925 9.38611L9.28925 9.38653C9.27445 10.4914 9.95517 11.7708 11.2639 11.802C11.9221 11.8177 12.4535 11.468 12.7888 11.027C13.1218 10.5892 13.3013 10.0218 13.3025 9.43438C13.3093 8.83838 13.1346 8.26674 12.8071 7.82403C12.4789 7.38029 11.9567 7.02445 11.3073 7.02445H11.2958C10.6482 7.02445 10.1325 7.38406 9.80832 7.81336C9.48215 8.24526 9.29734 8.8042 9.28925 9.38611ZM18.1758 16.1978H18.1654L18.155 16.198C17.5129 16.2136 17.0017 16.5714 16.6786 17.0111C16.3554 17.4511 16.1806 18.0157 16.1806 18.602C16.1806 19.1927 16.361 19.7582 16.6929 20.1947C17.0252 20.6316 17.5459 20.9756 18.1873 20.9756C18.8362 20.9756 19.3567 20.6203 19.6851 20.1824C20.0141 19.7439 20.194 19.1768 20.194 18.5867C20.194 17.9965 20.0141 17.4295 19.6851 16.9909C19.3567 16.553 18.8362 16.1978 18.1873 16.1978H18.1758ZM19.7009 10.9996L19.7074 10.9909L19.7136 10.9821C20.0464 10.5145 20.1911 9.94634 20.1911 9.41525C20.1911 8.88489 20.0466 8.31566 19.7074 7.85122L19.7075 7.85118L19.7009 7.84241C19.3436 7.36597 18.8177 7.05348 18.2198 7.04181C17.6199 7.03011 17.0813 7.32412 16.7096 7.79493L16.703 7.8033L16.6966 7.81183L9.7937 17.0157L9.79365 17.0157L9.78735 17.0243C9.13076 17.9228 9.13076 19.2658 9.78735 20.1643L9.78729 20.1643L9.7937 20.1729C10.151 20.6493 10.6769 20.9618 11.2748 20.9735C11.8747 20.9852 12.4133 20.6912 12.785 20.2204L12.7916 20.212L12.798 20.2035L19.7009 10.9996Z" stroke="#6C7072" stroke-width="1.72"/>
</svg>
