<svg width="29" height="28" viewBox="0 0 29 28" fill="none" xmlns="http://www.w3.org/2000/svg">
<g clip-path="url(#clip0_1039_2208)">
<path d="M20.4803 16.2933C20.4803 16.5974 20.3595 16.8891 20.1444 17.1041C19.9294 17.3192 19.6377 17.44 19.3336 17.44H10.1603C9.85616 17.44 9.5645 17.3192 9.34946 17.1041C9.13442 16.8891 9.01361 16.5974 9.01361 16.2933C9.01361 15.9892 9.13442 15.6975 9.34946 15.4825C9.5645 15.2675 9.85616 15.1467 10.1603 15.1467H19.3336C19.6377 15.1467 19.9294 15.2675 20.1444 15.4825C20.3595 15.6975 20.4803 15.9892 20.4803 16.2933ZM15.8936 19.7333H10.1603C9.85616 19.7333 9.5645 19.8541 9.34946 20.0692C9.13442 20.2842 9.01361 20.5759 9.01361 20.88C9.01361 21.1841 9.13442 21.4758 9.34946 21.6908C9.5645 21.9058 9.85616 22.0267 10.1603 22.0267H15.8936C16.1977 22.0267 16.4894 21.9058 16.7044 21.6908C16.9195 21.4758 17.0403 21.1841 17.0403 20.88C17.0403 20.5759 16.9195 20.2842 16.7044 20.0692C16.4894 19.8541 16.1977 19.7333 15.8936 19.7333ZM26.2136 12.2628V22.0267C26.2118 23.5467 25.6072 25.0039 24.5323 26.0787C23.4575 27.1535 22.0003 27.7582 20.4803 27.76H9.01361C7.49359 27.7582 6.03635 27.1535 4.96154 26.0787C3.88672 25.0039 3.28209 23.5467 3.28027 22.0267V5.97332C3.28209 4.45331 3.88672 2.99607 4.96154 1.92125C6.03635 0.846439 7.49359 0.241809 9.01361 0.239988H14.1908C15.2453 0.237274 16.2899 0.443622 17.2641 0.847101C18.2384 1.25058 19.123 1.84319 19.8668 2.59065L23.8618 6.58793C24.6097 7.33125 25.2027 8.21558 25.6064 9.18969C26.0101 10.1638 26.2165 11.2083 26.2136 12.2628V12.2628ZM18.2454 4.21204C17.8845 3.86249 17.4794 3.56179 17.0403 3.31764V8.26665C17.0403 8.57077 17.1611 8.86243 17.3761 9.07747C17.5912 9.29251 17.8828 9.41332 18.1869 9.41332H23.136C22.8917 8.97436 22.5906 8.56954 22.2404 8.20932L18.2454 4.21204ZM23.9203 12.2628C23.9203 12.0736 23.8836 11.8924 23.8664 11.7067H18.1869C17.2746 11.7067 16.3996 11.3442 15.7545 10.6991C15.1094 10.054 14.7469 9.179 14.7469 8.26665V2.58721C14.5612 2.57001 14.3789 2.53332 14.1908 2.53332H9.01361C8.10126 2.53332 7.22628 2.89575 6.58116 3.54087C5.93603 4.186 5.57361 5.06098 5.57361 5.97332V22.0267C5.57361 22.939 5.93603 23.814 6.58116 24.4591C7.22628 25.1042 8.10126 25.4667 9.01361 25.4667H20.4803C21.3926 25.4667 22.2676 25.1042 22.9127 24.4591C23.5578 23.814 23.9203 22.939 23.9203 22.0267V12.2628Z" fill="#6C7072"/>
</g>
<defs>
<clipPath id="clip0_1039_2208">
<rect width="27.52" height="27.52" fill="white" transform="translate(0.986328 0.240002)"/>
</clipPath>
</defs>
</svg>
