<svg width="29" height="28" viewBox="0 0 29 28" fill="none" xmlns="http://www.w3.org/2000/svg">
<g clip-path="url(#clip0_1039_2221)">
<path fill-rule="evenodd" clip-rule="evenodd" d="M19.5844 26.151H9.42336C5.69098 26.151 2.82763 24.8029 3.64095 19.377L4.58798 12.0237C5.08934 9.31631 6.81627 8.28015 8.3315 8.28015H20.7208C22.2583 8.28015 23.885 9.3943 24.4643 12.0237L25.4113 19.377C26.1021 24.1901 23.3167 26.151 19.5844 26.151Z" stroke="#6C7072" stroke-width="1.88193" stroke-linecap="round" stroke-linejoin="round"/>
<path d="M19.7517 8.01404C19.7517 5.10971 17.3973 2.75523 14.493 2.75523C13.0944 2.74936 11.7511 3.30078 10.76 4.28764C9.76901 5.27449 9.21191 6.61546 9.21191 8.01404" stroke="#6C7072" stroke-width="1.88193" stroke-linecap="round" stroke-linejoin="round"/>
<path d="M18.1026 13.4975H18.0469" stroke="#6C7072" stroke-width="1.88193" stroke-linecap="round" stroke-linejoin="round"/>
<path d="M11.0049 13.4975H10.9492" stroke="#6C7072" stroke-width="1.88193" stroke-linecap="round" stroke-linejoin="round"/>
</g>
<defs>
<clipPath id="clip0_1039_2221">
<rect width="27.52" height="27.52" fill="white" transform="translate(0.986328 0.23999)"/>
</clipPath>
</defs>
</svg>
