<svg width="26" height="28" viewBox="0 0 26 28" fill="none" xmlns="http://www.w3.org/2000/svg">
<path d="M12.8204 22.2689H21.9307C22.2854 22.2888 22.6394 22.2175 22.9587 22.0618C23.2781 21.906 23.5523 21.6711 23.7551 21.3793C23.9579 21.0876 24.0826 20.7487 24.1173 20.3951C24.1521 20.0415 24.0956 19.6849 23.9534 19.3593C23.4718 17.9038 21.5521 16.158 21.5521 14.4402C21.5521 10.6276 21.5521 9.62425 19.6738 7.38213C19.0653 6.66117 18.3119 6.07637 17.4625 5.66576L16.415 5.15741C16.2386 5.05203 16.0866 4.91055 15.9687 4.74224C15.8509 4.57393 15.77 4.38261 15.7314 4.18083C15.6267 3.50178 15.2676 2.88798 14.7271 2.46391C14.1865 2.03984 13.5048 1.83726 12.8204 1.89724C12.1483 1.85688 11.4853 2.0685 10.9609 2.49076C10.4365 2.91302 10.0883 3.51561 9.9843 4.18083C9.93723 4.38928 9.84488 4.58482 9.71379 4.75359C9.58271 4.92236 9.4161 5.06022 9.22578 5.15741L8.1783 5.66576C7.32939 6.07653 6.57641 6.66132 5.96829 7.38213C4.09139 9.62425 4.09139 10.6276 4.09139 14.4402C4.09139 16.158 2.25863 17.7285 1.77703 19.271C1.48673 20.2034 1.3262 22.2689 3.75694 22.2689H12.8204Z" stroke="white" stroke-width="2.00667" stroke-linecap="round" stroke-linejoin="round"/>
<path d="M17.1851 22.2689C17.1969 22.8454 17.0921 23.4183 16.8769 23.9533C16.6617 24.4883 16.3406 24.9742 15.9329 25.3819C15.5252 25.7897 15.0392 26.1108 14.5043 26.3259C13.9693 26.5411 13.3964 26.6459 12.8199 26.6341C12.2434 26.6463 11.6703 26.5418 11.1353 26.3267C10.6002 26.1116 10.1142 25.7905 9.7065 25.3827C9.2988 24.9749 8.97784 24.4888 8.76295 23.9536C8.54805 23.4185 8.44366 22.8454 8.45607 22.2689" stroke="white" stroke-width="2.00667" stroke-linecap="round" stroke-linejoin="round"/>
</svg>
