<svg width="28" height="29" viewBox="0 0 28 29" fill="none" xmlns="http://www.w3.org/2000/svg">
<g clip-path="url(#clip0_599_8057)">
<mask id="mask0_599_8057" style="mask-type:luminance" maskUnits="userSpaceOnUse" x="0" y="0" width="28" height="29">
<path d="M0 0.73999H27.52V28.26H0V0.73999Z" fill="white"/>
</mask>
<g mask="url(#mask0_599_8057)">
<path fill-rule="evenodd" clip-rule="evenodd" d="M3.44 3.03332C2.81195 3.03332 2.29333 3.55194 2.29333 4.17999V9.91332C2.29333 10.5414 2.81195 11.06 3.44 11.06H9.17333C9.80139 11.06 10.32 10.5414 10.32 9.91332V4.17999C10.32 3.55194 9.80139 3.03332 9.17333 3.03332H3.44ZM0 4.17999C0 2.28538 1.54539 0.73999 3.44 0.73999H9.17333C11.0679 0.73999 12.6133 2.28538 12.6133 4.17999V9.91332C12.6133 11.8079 11.0679 13.3533 9.17333 13.3533H3.44C1.54539 13.3533 0 11.8079 0 9.91332V4.17999Z" fill="white"/>
<path fill-rule="evenodd" clip-rule="evenodd" d="M18.3463 3.03332C17.7182 3.03332 17.1996 3.55194 17.1996 4.17999V9.91332C17.1996 10.5414 17.7182 11.06 18.3463 11.06H24.0796C24.7076 11.06 25.2262 10.5414 25.2262 9.91332V4.17999C25.2262 3.55194 24.7076 3.03332 24.0796 3.03332H18.3463ZM14.9062 4.17999C14.9062 2.28538 16.4516 0.73999 18.3463 0.73999H24.0796C25.9742 0.73999 27.5196 2.28538 27.5196 4.17999V9.91332C27.5196 11.8079 25.9742 13.3533 24.0796 13.3533H18.3463C16.4516 13.3533 14.9062 11.8079 14.9062 9.91332V4.17999Z" fill="white"/>
<path fill-rule="evenodd" clip-rule="evenodd" d="M3.44 17.94C2.81195 17.94 2.29333 18.4586 2.29333 19.0867V24.82C2.29333 25.448 2.81195 25.9667 3.44 25.9667H9.17333C9.80139 25.9667 10.32 25.448 10.32 24.82V19.0867C10.32 18.4586 9.80139 17.94 9.17333 17.94H3.44ZM0 19.0867C0 17.192 1.54539 15.6467 3.44 15.6467H9.17333C11.0679 15.6467 12.6133 17.192 12.6133 19.0867V24.82C12.6133 26.7146 11.0679 28.26 9.17333 28.26H3.44C1.54539 28.26 0 26.7146 0 24.82V19.0867Z" fill="white"/>
<path fill-rule="evenodd" clip-rule="evenodd" d="M18.3463 17.94C17.7182 17.94 17.1996 18.4586 17.1996 19.0867V24.82C17.1996 25.448 17.7182 25.9667 18.3463 25.9667H24.0796C24.7076 25.9667 25.2262 25.448 25.2262 24.82V19.0867C25.2262 18.4586 24.7076 17.94 24.0796 17.94H18.3463ZM14.9062 19.0867C14.9062 17.192 16.4516 15.6467 18.3463 15.6467H24.0796C25.9742 15.6467 27.5196 17.192 27.5196 19.0867V24.82C27.5196 26.7146 25.9742 28.26 24.0796 28.26H18.3463C16.4516 28.26 14.9062 26.7146 14.9062 24.82V19.0867Z" fill="white"/>
</g>
</g>
<defs>
<clipPath id="clip0_599_8057">
<rect width="27.52" height="27.52" fill="white" transform="translate(0 0.73999)"/>
</clipPath>
</defs>
</svg>
