<svg width="27" height="27" viewBox="0 0 27 27" fill="none" xmlns="http://www.w3.org/2000/svg">
<path d="M0 1.15714C0 0.85025 0.121921 0.555926 0.338943 0.338919C0.555964 0.121913 0.850309 0 1.15722 0H2.0182C3.48401 0 4.3635 0.985885 4.86497 1.90234C5.19979 2.51331 5.44204 3.22149 5.63182 3.86331C5.68316 3.85926 5.73463 3.8572 5.78612 3.85714H25.0701C26.3508 3.85714 27.2765 5.08217 26.9247 6.31491L24.1042 16.2031C23.8513 17.09 23.3163 17.8704 22.5802 18.426C21.8441 18.9817 20.9469 19.2824 20.0246 19.2826H10.847C9.9174 19.2827 9.01347 18.9774 8.27419 18.4138C7.53491 17.8502 7.0012 17.0594 6.7551 16.163L5.58245 11.8862L3.63831 5.33211L3.63677 5.31977C3.39607 4.44497 3.17079 3.62571 2.83443 3.01474C2.51195 2.42074 2.25273 2.31429 2.01974 2.31429H1.15722C0.850309 2.31429 0.555964 2.19237 0.338943 1.97537C0.121921 1.75836 0 1.46404 0 1.15714ZM7.82746 11.3246L8.98623 15.5505C9.21767 16.3867 9.97835 16.9683 10.847 16.9683H20.0246C20.4438 16.9683 20.8516 16.8317 21.1863 16.5792C21.5209 16.3267 21.7642 15.9721 21.8792 15.569L24.5594 6.17143H6.30301L7.80586 11.2428L7.82746 11.3246ZM13.1152 23.9143C13.1152 24.7327 12.7901 25.5175 12.2114 26.0962C11.6326 26.6749 10.8477 27 10.0293 27C9.21083 27 8.42591 26.6749 7.84719 26.0962C7.26847 25.5175 6.94334 24.7327 6.94334 23.9143C6.94334 23.0959 7.26847 22.311 7.84719 21.7324C8.42591 21.1537 9.21083 20.8286 10.0293 20.8286C10.8477 20.8286 11.6326 21.1537 12.2114 21.7324C12.7901 22.311 13.1152 23.0959 13.1152 23.9143ZM10.8008 23.9143C10.8008 23.7097 10.7195 23.5135 10.5748 23.3688C10.4301 23.2241 10.2339 23.1429 10.0293 23.1429C9.82466 23.1429 9.62843 23.2241 9.48375 23.3688C9.33907 23.5135 9.25779 23.7097 9.25779 23.9143C9.25779 24.1189 9.33907 24.3151 9.48375 24.4598C9.62843 24.6044 9.82466 24.6857 10.0293 24.6857C10.2339 24.6857 10.4301 24.6044 10.5748 24.4598C10.7195 24.3151 10.8008 24.1189 10.8008 23.9143ZM23.916 23.9143C23.916 24.7327 23.5908 25.5175 23.0121 26.0962C22.4334 26.6749 21.6485 27 20.83 27C20.0116 27 19.2267 26.6749 18.6479 26.0962C18.0692 25.5175 17.7441 24.7327 17.7441 23.9143C17.7441 23.0959 18.0692 22.311 18.6479 21.7324C19.2267 21.1537 20.0116 20.8286 20.83 20.8286C21.6485 20.8286 22.4334 21.1537 23.0121 21.7324C23.5908 22.311 23.916 23.0959 23.916 23.9143ZM21.6015 23.9143C21.6015 23.7097 21.5202 23.5135 21.3755 23.3688C21.2309 23.2241 21.0346 23.1429 20.83 23.1429C20.6254 23.1429 20.4292 23.2241 20.2845 23.3688C20.1398 23.5135 20.0585 23.7097 20.0585 23.9143C20.0585 24.1189 20.1398 24.3151 20.2845 24.4598C20.4292 24.6044 20.6254 24.6857 20.83 24.6857C21.0346 24.6857 21.2309 24.6044 21.3755 24.4598C21.5202 24.3151 21.6015 24.1189 21.6015 23.9143Z" fill="white"/>
</svg>
