<svg width="29" height="28" viewBox="0 0 29 28" fill="none" xmlns="http://www.w3.org/2000/svg">
<path d="M16.6097 18.0145H17.1073H18.1863C21.8962 18.0145 24.3278 17.0376 25.8239 15.72C27.3184 14.4038 27.933 12.702 27.933 11.1345C27.933 9.43919 26.694 8.03157 25.0695 7.75393L24.3323 7.62793L24.6454 6.94872C25.0954 5.97295 25.4184 5.05281 25.5836 4.24509L25.5837 4.24457C25.7551 3.41072 25.5429 2.55148 24.9981 1.88316L16.6097 18.0145ZM16.6097 18.0145L16.5397 18.5071M16.6097 18.0145L16.5397 18.5071M16.5397 18.5071C16.535 18.5401 16.5298 18.575 16.5244 18.6114C16.4944 18.8124 16.4572 19.0623 16.4572 19.3171V23.1733C16.4572 24.4164 16.9984 25.1745 17.6798 25.5909C18.3167 25.9802 19.014 26.0347 19.3233 26.0399L19.3233 26.04H19.333H22.1997M16.5397 18.5071L22.1997 26.04M22.1997 26.04V27.1867H7.29299V26.04H10.1597V26.0401L10.1695 26.0399C10.4748 26.0346 11.1697 25.98 11.8053 25.5906C12.4851 25.1742 13.0263 24.4164 13.0263 23.1733V19.3171C13.0263 19.0697 12.99 18.823 12.9612 18.6268C12.955 18.5849 12.9492 18.5454 12.9442 18.5086L12.8761 18.0133H12.3762H11.3063C7.59641 18.0133 5.16489 17.0365 3.66877 15.7189C2.17422 14.4026 1.55966 12.7009 1.55966 11.1333C1.55966 9.43896 2.79773 8.0315 4.42092 7.75392L5.15807 7.62786L4.84493 6.94872C4.39556 5.97416 4.07432 5.05245 3.90777 4.24457C3.73639 3.41054 3.94877 2.55039 4.49309 1.88353L22.1997 26.04ZM23.9575 8.84114H23.635L23.4675 9.11676C22.1017 11.3647 20.2813 13.5768 18.3757 15.0998C18.065 15.3474 17.7911 15.6338 17.5531 15.9493L16.8605 16.8678H18.0109C21.049 16.8678 23.2337 16.1844 24.6741 15.1097C26.125 14.027 26.7863 12.569 26.7863 11.1345C26.7863 9.86953 25.7579 8.84114 24.493 8.84114H23.9575ZM6.02184 9.11701L5.85442 8.84114H5.53171H4.99966C3.73472 8.84114 2.70633 9.86953 2.70633 11.1345C2.70633 12.5682 3.36472 14.0263 4.81363 15.1094C6.25183 16.1844 8.43449 16.8678 11.4726 16.8678H12.6259L11.9297 15.9484C11.692 15.6345 11.4174 15.3475 11.1084 15.1003L11.1083 15.1002C9.20266 13.5762 7.38561 11.3641 6.02184 9.11701ZM15.8924 4.6505L15.7628 4.25187L15.3436 4.25448L14.2371 4.26136L13.8237 4.26393L13.6955 4.65698L13.0769 6.55468H11.077H10.6612L10.532 6.94992L10.188 8.00256L10.0584 8.39913L10.3959 8.64443L12.0152 9.82141L11.3963 11.7255L11.2675 12.1219L11.6048 12.3667L12.5003 13.0169L12.8365 13.261L13.1732 13.0174L14.7976 11.8423L16.4165 13.0159L16.7532 13.2601L17.0898 13.0157L17.9854 12.3655L18.3226 12.1207L18.1938 11.7244L17.5749 9.82026L19.1942 8.64328L19.5317 8.39798L19.4021 8.00141L19.0581 6.94877L18.9289 6.55354H18.5131H16.5113L15.8924 4.6505ZM22.7455 0.813324C23.6224 0.813324 24.4431 1.20256 24.998 1.88308L4.49321 1.88339C5.04963 1.20234 5.8694 0.813324 6.74603 0.813324H22.7455Z" stroke="#6C7072" stroke-width="1.14667"/>
</svg>
