<svg width="29" height="28" viewBox="0 0 29 28" fill="none" xmlns="http://www.w3.org/2000/svg">
<path d="M14.7463 25.0929C20.8012 20.6631 23.9768 16.6332 25.2791 13.2605C27.7246 6.92505 23.5608 2.90714 19.4541 2.90714C17.7019 2.90714 15.9594 3.63924 14.7463 5.23499C13.5329 3.63891 11.791 2.90714 10.0384 2.90714C5.93211 2.90714 1.76811 6.9256 4.21339 13.2605C5.51573 16.6332 8.69131 20.6631 14.7463 25.0929ZM14.7463 27.76C14.2526 27.76 13.7589 27.6043 13.3331 27.2927C7.41019 22.9596 3.56442 18.5803 1.90262 14.2766C0.520776 10.6967 0.706959 7.21587 2.42675 4.47492C4.06577 1.86274 6.98239 0.240021 10.0384 0.240021C11.7506 0.240021 13.3775 0.754527 14.7463 1.69728C16.115 0.754531 17.7419 0.240021 19.4541 0.240021C22.5104 0.240021 25.4271 1.86267 27.066 4.47473C28.7857 7.21557 28.9718 10.6965 27.59 14.2763C25.9281 18.5803 22.0823 22.9595 16.1594 27.2927C15.7336 27.6043 15.2399 27.76 14.7463 27.76Z" fill="#6C7072"/>
</svg>
